<?xml version="1.0" standalone="no"?>
<!DOCTYPE svg PUBLIC "-//W3C//DTD SVG 20010904//EN"
 "http://www.w3.org/TR/2001/REC-SVG-20010904/DTD/svg10.dtd">
<svg version="1.0" xmlns="http://www.w3.org/2000/svg"
 width="348.000000pt" height="348.000000pt" viewBox="0 0 348.000000 348.000000"
 preserveAspectRatio="xMidYMid meet">
<metadata>
Created by potrace 1.11, written by Peter Selinger 2001-2013
</metadata>
<g transform="translate(0.000000,348.000000) scale(0.100000,-0.100000)"
fill="#000000" stroke="none">
<path d="M1304 2437 l-431 -692 434 -3 c238 -1 628 -1 866 0 l434 3 -431 692
c-237 380 -433 692 -436 692 -3 0 -199 -312 -436 -692z"/>
<path d="M432 1040 l-431 -690 1739 0 1739 0 -430 688 c-236 378 -433 688
-437 690 -5 1 -201 -306 -436 -683 -236 -377 -432 -685 -436 -685 -4 0 -200
308 -436 685 -235 377 -430 685 -434 685 -3 0 -200 -310 -438 -690z"/>
</g>
</svg>
